<?xml version="1.0" encoding="UTF-8"?>
<svg width="38px" height="38px" viewBox="0 0 38 38" version="1.1" xmlns="http://www.w3.org/2000/svg" xmlns:xlink="http://www.w3.org/1999/xlink">
    <title>logo-反白使用</title>
    <defs>
        <path d="M3.59832784,9.31364309 C3.59832784,9.31364309 -0.469953104,15.7589295 0.045077117,25.8079908 L0.045077117,25.8079908 L9.91534518,25.8079908 C9.97142625,22.3573905 10.1614152,18.2902571 11.7582378,15.1633761 L11.7582378,15.1633761 C12.5037726,13.7035935 13.5372666,12.3568307 14.8067589,11.3013026 L14.8067589,11.3013026 C16.0673239,10.2532188 17.4723264,9.70909957 18.9782748,9.09459674 L18.9782748,9.09459674 C18.9791904,6.06313969 18.978847,3.03168264 18.978847,0 L18.978847,0 C14.0648864,0.825202403 7.07810092,3.09507298 3.59832784,9.31364309" id="path-1"></path>
        <linearGradient x1="18.68776%" y1="132.690371%" x2="73.1638769%" y2="-12.5761734%" id="linearGradient-3">
            <stop stop-color="#5B6BF6" offset="0%"></stop>
            <stop stop-color="#FFFFFF" offset="100%"></stop>
        </linearGradient>
        <path d="M13.6826362,0 C6.16044815,0.00812118275 0.0135052369,6.08344265 0,13.4782307 L0,13.4782307 L0,13.5253787 C0,13.5616984 0,13.5980182 0.000686706962,13.6345635 L0.000686706962,13.6345635 C0.0739354495,21.0284492 6.17853144,27 13.6984305,27 L13.6984305,27 C13.9369467,27 14.1743184,26.9939091 14.4098589,26.9819529 L14.4098589,26.9819529 L14.3993294,26.8497581 C14.1878236,24.1454043 14.3858241,21.4250336 14.9866927,18.7782048 L14.9866927,18.7782048 C14.4098589,18.9182952 13.7973163,18.8316693 13.1632568,18.7597066 L13.1632568,18.7597066 C10.5844433,18.4666672 8.52615364,16.4250921 8.34852544,13.8730104 L8.34852544,13.8730104 C8.13358616,10.7851563 10.6112249,8.21457635 13.6984305,8.21457635 L13.6984305,8.21457635 C15.4287031,8.21457635 17.0092736,8.76140266 17.9898912,10.0149975 L17.9898912,10.0149975 C19.3488843,7.76046688 21.1505744,5.42495008 23.302714,3.88237653 L23.302714,3.88237653 C20.8150036,1.35510958 17.5611571,0.00157911887 13.7075866,0 L13.7075866,0 L13.6826362,0 Z" id="path-4"></path>
        <linearGradient x1="18.5947178%" y1="108.146049%" x2="79.7063225%" y2="-30.7071977%" id="linearGradient-6">
            <stop stop-color="#5B6BF6" offset="0%"></stop>
            <stop stop-color="#FFFFFF" offset="100%"></stop>
        </linearGradient>
        <path d="M4.03692133,1.59062388 C2.93246763,2.50899429 1.97382471,3.72829965 1.26491422,5.11634513 L1.26491422,5.11634513 C0.660154293,6.3004587 0.264839985,7.66910358 0,9.11760676 L0,9.11760676 L6.88973095,9.11760676 L6.88973095,0 C5.77726567,0.467644773 4.84631993,0.917919239 4.03692133,1.59062388" id="path-7"></path>
        <linearGradient x1="-49.3901996%" y1="349.587332%" x2="142.026916%" y2="-147.158796%" id="linearGradient-9">
            <stop stop-color="#5B6BF6" offset="0%"></stop>
            <stop stop-color="#FFFFFF" offset="100%"></stop>
        </linearGradient>
    </defs>
    <g id="插件logo替换和文案调整" stroke="none" stroke-width="1" fill="none" fill-rule="evenodd">
        <g id="1.1.4权限申请" transform="translate(-190, -291)">
            <g id="编组-3" transform="translate(190, 291)">
                <g id="编组" transform="translate(1, 5)">
                    <g transform="translate(15.9193, 1.192)">
                        <mask id="mask-2" fill="white">
                            <use xlink:href="#path-1"></use>
                        </mask>
                        <g id="Clip-18"></g>
                        <path d="M3.59832784,9.31364309 C3.59832784,9.31364309 -0.469953104,15.7589295 0.045077117,25.8079908 L0.045077117,25.8079908 L9.91534518,25.8079908 C9.97142625,22.3573905 10.1614152,18.2902571 11.7582378,15.1633761 L11.7582378,15.1633761 C12.5037726,13.7035935 13.5372666,12.3568307 14.8067589,11.3013026 L14.8067589,11.3013026 C16.0673239,10.2532188 17.4723264,9.70909957 18.9782748,9.09459674 L18.9782748,9.09459674 C18.9791904,6.06313969 18.978847,3.03168264 18.978847,0 L18.978847,0 C14.0648864,0.825202403 7.07810092,3.09507298 3.59832784,9.31364309" id="Fill-17" fill="url(#linearGradient-3)" mask="url(#mask-2)"></path>
                    </g>
                    <g>
                        <mask id="mask-5" fill="white">
                            <use xlink:href="#path-4"></use>
                        </mask>
                        <g id="Clip-20"></g>
                        <path d="M13.6826362,0 C6.16044815,0.00812118275 0.0135052369,6.08344265 0,13.4782307 L0,13.4782307 L0,13.5253787 C0,13.5616984 0,13.5980182 0.000686706962,13.6345635 L0.000686706962,13.6345635 C0.0739354495,21.0284492 6.17853144,27 13.6984305,27 L13.6984305,27 C13.9369467,27 14.1743184,26.9939091 14.4098589,26.9819529 L14.4098589,26.9819529 L14.3993294,26.8497581 C14.1878236,24.1454043 14.3858241,21.4250336 14.9866927,18.7782048 L14.9866927,18.7782048 C14.4098589,18.9182952 13.7973163,18.8316693 13.1632568,18.7597066 L13.1632568,18.7597066 C10.5844433,18.4666672 8.52615364,16.4250921 8.34852544,13.8730104 L8.34852544,13.8730104 C8.13358616,10.7851563 10.6112249,8.21457635 13.6984305,8.21457635 L13.6984305,8.21457635 C15.4287031,8.21457635 17.0092736,8.76140266 17.9898912,10.0149975 L17.9898912,10.0149975 C19.3488843,7.76046688 21.1505744,5.42495008 23.302714,3.88237653 L23.302714,3.88237653 C20.8150036,1.35510958 17.5611571,0.00157911887 13.7075866,0 L13.7075866,0 L13.6826362,0 Z" id="Fill-19" fill="url(#linearGradient-6)" mask="url(#mask-5)"></path>
                    </g>
                    <g transform="translate(28.0085, 12.0694)">
                        <mask id="mask-8" fill="white">
                            <use xlink:href="#path-7"></use>
                        </mask>
                        <g id="Clip-22"></g>
                        <path d="M4.03692133,1.59062388 C2.93246763,2.50899429 1.97382471,3.72829965 1.26491422,5.11634513 L1.26491422,5.11634513 C0.660154293,6.3004587 0.264839985,7.66910358 0,9.11760676 L0,9.11760676 L6.88973095,9.11760676 L6.88973095,0 C5.77726567,0.467644773 4.84631993,0.917919239 4.03692133,1.59062388" id="Fill-21" fill="url(#linearGradient-9)" mask="url(#mask-8)"></path>
                    </g>
                </g>
            </g>
        </g>
    </g>
</svg>